HIERARCHY
ROOT Hips
{
	OFFSET 0.000000 0.000000 0.000000
	CHANNELS 6 Xposition Yposition Zposition Zrotation Yrotation Xrotation 
	JOINT LeftUpLeg_virtual
	{
		OFFSET 0.000000 0.000000 0.000000
		CHANNELS 3 Zrotation Yrotation Xrotation
		JOINT LeftUpLeg
		{
			OFFSET 10.205400 -3.823500 0.155100
			CHANNELS 3 Zrotation Yrotation Xrotation
			JOINT LeftLeg
			{
				OFFSET 0.708757 -12.982077 0.567790
				CHANNELS 3 Zrotation Yrotation Xrotation
				JOINT LeftFoot
				{
					OFFSET -0.708756 -10.717838 -2.184338
					CHANNELS 3 Zrotation Yrotation Xrotation
					JOINT LeftToeBase
					{
						OFFSET 0.108149 -7.191104 7.560241
						CHANNELS 3 Zrotation Yrotation Xrotation
						End Site
						{
							OFFSET 0.000000 0.000000 0.000000
						}
					}
				}
			}
		}
	}
	JOINT RightUpLeg_virtual
	{
		OFFSET 0.000000 0.000000 0.000000
		CHANNELS 3 Zrotation Yrotation Xrotation
		JOINT RightUpLeg
		{
			OFFSET -10.205400 -3.823500 0.005500
			CHANNELS 3 Zrotation Yrotation Xrotation
			JOINT RightLeg
			{
				OFFSET -0.708756 -12.982134 0.610632
				CHANNELS 3 Zrotation Yrotation Xrotation
				JOINT RightFoot
				{
					OFFSET 0.708754 -10.717769 -1.945823
					CHANNELS 3 Zrotation Yrotation Xrotation
					JOINT RightToeBase
					{
						OFFSET -0.108140 -7.191069 7.372968
						CHANNELS 3 Zrotation Yrotation Xrotation
						End Site
						{
							OFFSET 0.000000 0.000000 0.000000
						}
					}
				}
			}
		}
	}
	JOINT Spine_virtual
	{
		OFFSET 0.000000 0.000000 0.000000
		CHANNELS 3 Zrotation Yrotation Xrotation
		JOINT Spine
		{
			OFFSET 0.000000 6.876099 0.125700
			CHANNELS 3 Zrotation Yrotation Xrotation
			JOINT Spine1
			{
				OFFSET 0.000000 8.022060 0.146608
				CHANNELS 3 Zrotation Yrotation Xrotation
				JOINT Spine2
				{
					OFFSET 0.000000 9.168068 0.167552
					CHANNELS 3 Zrotation Yrotation Xrotation
					JOINT Neck_virtual
					{
						OFFSET 0.000000 0.000000 0.000000
						CHANNELS 3 Zrotation Yrotation Xrotation
						JOINT Neck
						{
							OFFSET 0.000000 10.314075 0.188496
							CHANNELS 3 Zrotation Yrotation Xrotation
							JOINT Head
							{
								OFFSET 0.000000 7.643700 -2.377400
								CHANNELS 3 Zrotation Yrotation Xrotation
								End Site
								{
									OFFSET 0.000000 0.000000 0.000000
								}
							}
						}
					}
					JOINT LeftShoulder_virtual
					{
						OFFSET 0.000000 0.000000 0.000000
						CHANNELS 3 Zrotation Yrotation Xrotation
						JOINT LeftShoulder
						{
							OFFSET 4.392200 8.824978 0.174984
							CHANNELS 3 Zrotation Yrotation Xrotation
							JOINT LeftArm
							{
								OFFSET 8.771219 -2.981674 -0.026999
								CHANNELS 3 Zrotation Yrotation Xrotation
								JOINT LeftForeArm
								{
									OFFSET 8.512804 0.000000 -0.000000
									CHANNELS 3 Zrotation Yrotation Xrotation
									JOINT LeftHand
									{
										OFFSET 18.484802 0.000000 -0.000000
										CHANNELS 3 Zrotation Yrotation Xrotation
										End Site
										{
											OFFSET 0.000000 0.000000 0.000000
										}
									}
								}
							}
						}
					}
					JOINT RightShoulder_virtual
					{
						OFFSET 0.000000 0.000000 0.000000
						CHANNELS 3 Zrotation Yrotation Xrotation
						JOINT RightShoulder
						{
							OFFSET -4.392200 8.824993 0.141379
							CHANNELS 3 Zrotation Yrotation Xrotation
							JOINT RightArm
							{
								OFFSET -8.771282 -2.981682 -0.094208
								CHANNELS 3 Zrotation Yrotation Xrotation
								JOINT RightForeArm
								{
									OFFSET -8.494598 0.000000 0.000000
									CHANNELS 3 Zrotation Yrotation Xrotation
									JOINT RightHand
									{
										OFFSET -18.483803 0.000000 0.000001
										CHANNELS 3 Zrotation Yrotation Xrotation
										End Site
										{
											OFFSET 0.000000 0.000000 0.000000
										}
									}
								}
							}
						}
					}
				}
			}
		}
	}
}
MOTION
Frames: 13
Frame Time: 0.033333
4.539355 34.522041 24.711895 179.941580 3.114492 -179.620219 -2.087868 -2.891253 9.258852 -10.158764 -3.588565 -27.445312 13.865122 5.466817 20.059941 -7.174795 1.910983 2.720503 0.000000 0.000000 0.000000 1.669907 -0.093829 8.488827 7.515739 8.679242 -22.948809 -6.505718 -1.638481 20.040690 3.333520 1.751326 1.908454 0.000000 0.000000 0.000000 1.187769 0.292064 -4.613290 -1.714718 -1.290680 -9.197096 -0.468632 -2.451146 9.694304 -0.002356 -0.101953 0.030594 -0.870605 -0.227544 12.749799 0.241029 -1.283759 16.835366 0.000000 0.000000 0.000000 0.441990 0.411036 9.512532 -15.758904 -9.677517 -0.427024 -53.975102 22.511576 11.117627 -1.459180 -32.725014 2.041529 0.000000 0.000000 0.000000 -2.897397 1.465191 9.255034 22.783529 3.432069 1.777752 45.880816 -17.281072 17.726369 -5.631444 31.725662 -3.375347 0.000000 0.000000 0.000000 
4.507325 34.527531 24.749338 179.950131 3.171521 -179.579470 -1.988939 -3.039733 9.285894 -10.171358 -3.783655 -27.580785 14.002823 5.265967 20.288300 -6.991450 2.061360 2.651663 0.000000 0.000000 0.000000 1.489468 -0.024495 8.733759 7.657317 8.645217 -22.736009 -6.459899 -1.807630 20.319949 2.995629 1.393696 2.147613 0.000000 0.000000 0.000000 1.189165 0.272667 -4.522863 -1.684372 -1.276476 -9.266305 -0.428284 -2.443928 9.719477 0.005827 -0.137129 0.121225 -0.813818 -0.254013 12.569988 0.281296 -1.254001 16.910490 0.000000 0.000000 0.000000 0.466509 0.380847 9.366980 -15.858021 -9.679767 -0.457769 -53.891070 22.769353 11.012428 -1.478650 -32.788883 2.075235 0.000000 0.000000 0.000000 -2.844327 1.453936 9.014173 22.815736 3.396071 1.880010 46.120873 -17.391202 17.379782 -5.634146 31.622666 -3.385334 0.000000 0.000000 0.000000 
4.484778 34.537437 24.790155 179.958901 3.535934 -179.651133 -1.997783 -2.956584 9.424198 -10.137279 -3.722641 -27.590875 13.906165 5.443419 20.103366 -6.904354 2.108035 2.696336 0.000000 0.000000 0.000000 1.565320 -0.105507 8.750831 7.617946 8.489443 -22.649705 -6.541778 -1.659958 20.290347 3.419621 1.397688 1.934600 0.000000 0.000000 0.000000 1.176532 0.282789 -4.255838 -1.596387 -1.226966 -9.243937 -0.436079 -2.542689 9.545934 -0.012292 -0.080453 0.069134 -0.807959 -0.242529 12.423323 0.351417 -1.235779 16.931385 0.000000 0.000000 0.000000 0.463411 0.487077 9.232536 -15.950971 -9.551910 -0.383667 -53.923527 23.014348 10.849159 -1.363096 -32.826272 1.975447 0.000000 0.000000 0.000000 -2.859613 1.452364 8.925330 22.845916 3.413688 1.889823 46.564456 -17.509876 16.519328 -5.639780 31.537801 -3.403494 0.000000 0.000000 0.000000 
4.465487 34.548630 24.858414 179.941880 3.749143 -179.713670 -2.019817 -2.861307 9.453923 -10.053515 -3.630252 -27.573300 13.766686 5.594502 19.879628 -6.847447 2.123806 2.802719 0.000000 0.000000 0.000000 1.668464 -0.263088 8.680170 7.606330 8.363985 -22.526471 -6.624808 -1.507101 20.271566 3.847973 1.374752 1.725446 0.000000 0.000000 0.000000 1.153854 0.280094 -4.013446 -1.453174 -1.074169 -9.224483 -0.439310 -2.512410 9.360474 0.000056 -0.052722 0.094507 -0.814537 -0.267105 12.197092 0.456278 -1.220657 17.046868 0.000000 0.000000 0.000000 0.444470 0.474827 9.016527 -15.999172 -9.598891 -0.352084 -53.920409 23.080136 10.646045 -1.328670 -32.808155 1.957795 0.000000 0.000000 0.000000 -2.894402 1.395442 8.713918 22.882944 3.411445 1.980671 47.111121 -17.666272 15.578968 -5.696225 31.415418 -3.501928 0.000000 0.000000 0.000000 
4.437079 34.556828 24.960751 179.944790 3.804521 -179.826559 -2.021454 -2.775006 9.384203 -10.015808 -3.511887 -27.459666 13.559791 5.878051 19.585036 -6.843610 2.089195 3.146394 0.000000 0.000000 0.000000 1.783621 -0.459186 8.455052 7.618292 7.928350 -22.477577 -6.688996 -1.118350 20.282327 4.198483 1.401981 1.498176 0.000000 0.000000 0.000000 1.166229 0.213162 -3.801180 -1.282198 -0.929109 -9.174810 -0.495243 -2.548543 9.234141 -0.010337 -0.066816 0.065944 -0.871494 -0.286584 12.031981 0.578285 -1.216662 17.191784 0.000000 0.000000 0.000000 0.383747 0.456572 8.887107 -16.065216 -9.596586 -0.251809 -53.913514 23.129946 10.602526 -1.296200 -32.766900 1.952119 0.000000 0.000000 0.000000 -2.958053 1.396382 8.597418 22.910357 3.484353 2.078350 47.690003 -17.877038 14.636749 -5.813906 31.381075 -3.628452 0.000000 0.000000 0.000000 
4.405826 34.562099 25.070967 -179.891282 3.709218 -179.871147 -1.824258 -2.711438 9.200623 -10.015117 -3.275133 -27.360517 13.223350 6.276832 19.229534 -6.922737 1.990357 3.591351 0.000000 0.000000 0.000000 2.078604 -0.649045 8.204813 7.578774 7.555513 -22.489728 -6.540421 -0.415482 20.394093 4.224284 1.152408 1.303181 0.000000 0.000000 0.000000 1.350766 0.300927 -3.708847 -1.055462 -0.810484 -9.121515 -0.568318 -2.671983 9.093452 -0.024363 0.012011 0.034029 -0.969725 -0.295856 11.871194 0.699799 -1.201523 17.484705 0.000000 0.000000 0.000000 0.299007 0.479523 8.843616 -16.130460 -9.701373 -0.187243 -53.825664 23.230505 10.684275 -1.344178 -32.745587 2.030876 0.000000 0.000000 0.000000 -3.107484 1.392426 8.516277 22.894654 3.592033 2.224502 48.199156 -18.229350 14.092085 -6.003036 31.474564 -3.817103 0.000000 0.000000 0.000000 
4.364215 34.577965 25.172606 -179.874179 3.410818 -179.880559 -1.696073 -2.662594 9.093496 -10.058692 -2.915552 -27.327537 12.834780 6.792300 18.651677 -7.141160 1.836520 4.401235 0.000000 0.000000 0.000000 2.300392 -0.757961 8.040762 7.354402 7.284952 -22.569059 -6.441227 -0.118785 20.727954 4.287937 0.942509 1.095102 0.000000 0.000000 0.000000 1.511986 0.180618 -3.748751 -0.909100 -0.486847 -9.168467 -0.647302 -2.595412 9.040319 0.006581 -0.029602 0.030969 -1.101869 -0.311486 11.729182 0.799217 -1.181316 17.915634 0.000000 0.000000 0.000000 0.153809 0.365673 8.717432 -16.262269 -9.645393 -0.057638 -53.589661 23.408797 10.922239 -1.344253 -32.846813 2.077115 0.000000 0.000000 0.000000 -3.265920 1.317554 8.340335 22.804103 3.755398 2.487140 48.606806 -18.616306 13.789787 -6.181339 31.729763 -3.944951 0.000000 0.000000 0.000000 
4.327673 34.608284 25.267944 -179.849645 2.821003 -179.930788 -1.599402 -2.806735 8.968669 -10.080406 -2.513951 -27.241591 12.322605 7.300569 17.994168 -7.436072 1.674006 5.278313 0.000000 0.000000 0.000000 2.557290 -0.959343 7.981018 7.007361 6.887667 -22.693047 -6.267448 -0.029273 21.008444 4.354667 0.806551 0.935956 0.000000 0.000000 0.000000 1.710507 0.130454 -3.829936 -0.805383 -0.216769 -9.292694 -0.791987 -2.604016 8.998177 0.001691 -0.034367 -0.000429 -1.231856 -0.353563 11.650276 0.882655 -1.150346 18.523961 0.000000 0.000000 0.000000 -0.002202 0.263647 8.666287 -16.418035 -9.574527 0.043525 -53.116838 23.589117 11.331445 -1.346641 -33.041607 2.127119 0.000000 0.000000 0.000000 -3.443804 1.226649 8.180686 22.659680 3.907065 2.880595 48.792378 -19.034842 13.893299 -6.441472 32.033475 -4.069430 0.000000 0.000000 0.000000 
4.313199 34.653801 25.333487 -179.909013 2.294855 -179.951852 -1.627920 -2.838407 8.900004 -10.063528 -1.956619 -27.275042 11.782678 7.674306 17.522038 -7.784320 1.528675 6.163186 0.000000 0.000000 0.000000 2.797268 -1.042155 7.950134 6.625535 6.591689 -22.832281 -6.156816 -0.044452 21.349378 4.331775 0.640751 0.761938 0.000000 0.000000 0.000000 1.859009 0.099959 -3.914635 -0.773328 0.068569 -9.503226 -0.978063 -2.761726 8.979865 -0.024717 0.011487 0.045498 -1.355841 -0.414756 11.530402 0.897758 -1.122300 19.262556 0.000000 0.000000 0.000000 -0.119780 0.251362 8.473171 -16.536397 -9.332683 0.180842 -52.270225 23.524433 12.269571 -1.250513 -33.344615 2.173716 0.000000 0.000000 0.000000 -3.595684 1.139287 8.112225 22.514226 4.331346 3.173304 48.719371 -19.392719 14.325890 -6.742921 32.139400 -4.148648 0.000000 0.000000 0.000000 
4.310606 34.697124 25.365870 -179.896200 1.846140 -179.924627 -1.571795 -3.068086 8.932103 -10.036596 -1.477532 -27.373633 11.358546 7.987751 17.184507 -8.046276 1.491160 6.841201 0.000000 0.000000 0.000000 3.070814 -1.260072 7.906331 6.275997 6.482014 -23.004287 -6.110765 -0.017750 21.597511 4.253589 0.517874 0.636182 0.000000 0.000000 0.000000 1.977700 0.022378 -4.011004 -0.734821 0.193126 -9.843559 -1.102426 -2.733986 8.908101 -0.022668 0.059813 0.018696 -1.493980 -0.438581 11.488281 0.805596 -1.101232 20.062699 0.000000 0.000000 0.000000 -0.235678 0.264864 8.375212 -16.599602 -9.291936 0.274928 -50.780209 22.916203 14.353460 -1.135813 -33.410137 2.340107 0.000000 0.000000 0.000000 -3.734415 1.185570 8.009588 22.417475 4.641387 3.582183 48.431519 -19.377127 14.591712 -7.047950 31.856740 -4.162530 0.000000 0.000000 0.000000 
4.327443 34.717304 25.366999 -179.863401 1.758259 -179.874780 -1.461668 -3.483488 9.046387 -10.000707 -1.132390 -27.601170 11.094974 7.957599 17.375455 -7.932221 1.597305 6.908395 0.000000 0.000000 0.000000 3.306767 -1.589135 7.836750 6.048760 6.562244 -23.220413 -6.013024 0.133269 21.851377 4.179949 0.527026 0.558161 0.000000 0.000000 0.000000 2.058950 -0.273360 -4.065558 -0.739540 0.506437 -10.241694 -1.177936 -2.695024 8.804355 -0.009703 -0.023192 -0.018968 -1.630151 -0.390091 11.408015 0.556642 -1.087409 20.873528 0.000000 0.000000 0.000000 -0.380590 0.312669 8.259688 -16.591021 -9.350529 0.411978 -48.703463 21.642663 17.686259 -0.966983 -33.269220 2.618679 0.000000 0.000000 0.000000 -3.848672 1.214807 8.001688 22.409566 5.218263 3.983718 47.944428 -18.750396 14.586588 -7.325813 31.032565 -4.154107 0.000000 0.000000 0.000000 
4.348343 34.702675 25.359406 -179.884971 2.035899 -179.924900 -1.344132 -4.039872 9.144745 -9.932052 -1.023377 -27.799459 10.964635 7.827378 18.103676 -7.516313 1.776856 6.270964 0.000000 0.000000 0.000000 3.401632 -2.178533 7.793012 5.876469 7.080257 -23.473207 -5.940314 0.218992 22.026182 4.173629 0.717534 0.687739 0.000000 0.000000 0.000000 2.086388 -0.513143 -4.004348 -0.798252 0.614980 -10.614146 -1.272996 -2.693384 8.696579 -0.039695 -0.100045 0.024766 -1.650949 -0.429068 11.245023 0.223167 -1.007901 21.664458 0.000000 0.000000 0.000000 -0.396532 0.339686 8.087379 -16.481175 -9.577522 0.414406 -46.191555 19.670093 22.049662 -0.811356 -33.066086 3.132961 0.000000 0.000000 0.000000 -3.870147 1.202360 7.889762 22.477557 5.876521 4.222899 47.302342 -17.503103 14.030861 -7.503280 29.927171 -4.061354 0.000000 0.000000 0.000000 
4.369599 34.664650 25.402285 -179.874862 2.962147 -179.909491 -1.269969 -4.554348 9.480997 -9.729429 -1.011017 -28.537432 10.971575 7.703978 19.385672 -6.869895 1.984054 5.415879 0.000000 0.000000 0.000000 3.514944 -2.766694 7.619890 5.739434 7.867686 -23.928258 -5.917018 0.477645 22.330018 4.229033 1.108161 0.976606 0.000000 0.000000 0.000000 2.125372 -0.819935 -3.884402 -0.831204 0.766132 -10.941356 -1.296938 -2.642450 8.526084 -0.034116 -0.056226 0.053115 -1.664568 -0.389795 11.089112 -0.255120 -0.911908 22.392960 0.000000 0.000000 0.000000 -0.417336 0.257107 7.926822 -16.169747 -9.832479 0.497027 -43.418246 17.375849 26.764409 -0.427050 -33.289973 3.625926 0.000000 0.000000 0.000000 -3.867566 1.227797 7.754979 22.592958 6.306559 4.404777 46.692232 -15.597784 12.840948 -7.579060 28.929249 -4.002668 0.000000 0.000000 0.000000 
